<svg id="レイヤー_1" data-name="レイヤー 1" xmlns="http://www.w3.org/2000/svg" width="22" height="22" viewBox="0 0 22 22">
  <defs>
    <style>
      .cls-1 {
        fill: #aaa;
      }

      .cls-2 {
        fill: #ff754a;
      }

      .cls-3 {
        fill: #ccc;
      }
    </style>
  </defs>
  <title>110</title>
  <g>
    <path class="cls-1" d="M21.42,17.13l0-.12a3.59,3.59,0,0,0-.14-.43,1,1,0,0,0-.08-.14c-.06-.12-.12-.24-.19-.36l-.15-.17a1.73,1.73,0,0,0-.21-.25,2.12,2.12,0,0,0-.24-.2l-.19-.15a2.21,2.21,0,0,0-.34-.18L19.68,15a2.26,2.26,0,0,0-.37-.11l-.18,0-.34,0-.22,0h-.09a3.82,3.82,0,0,0-6.86.71,2.56,2.56,0,0,0,.29,5.1h6.66a2.91,2.91,0,0,0,2.91-2.91A2.88,2.88,0,0,0,21.42,17.13Zm-2.85,2.52H11.91a1.58,1.58,0,1,1,0-3.15H12a.53.53,0,0,0,.49-.37,2.82,2.82,0,0,1,5-1.07,3,3,0,0,0-1.06.75.51.51,0,0,0,.05.7.5.5,0,0,0,.69-.05,1.93,1.93,0,1,1,1.45,3.19Z"/>
    <g>
      <path class="cls-2" d="M6.89,10.86a3.57,3.57,0,1,1,3.56-3.57A3.57,3.57,0,0,1,6.89,10.86Zm0-6.15A2.59,2.59,0,1,0,9.47,7.29,2.59,2.59,0,0,0,6.89,4.71Z"/>
      <g>
        <path class="cls-2" d="M6.89,3.29A.49.49,0,0,1,6.4,2.8V1.42a.49.49,0,0,1,1,0V2.8A.49.49,0,0,1,6.89,3.29Z"/>
        <path class="cls-2" d="M6.89,13.66a.49.49,0,0,1-.49-.49V11.79a.49.49,0,0,1,1,0v1.38A.49.49,0,0,1,6.89,13.66Z"/>
      </g>
      <g>
        <path class="cls-2" d="M2.39,7.78H1a.48.48,0,0,1-.49-.49A.49.49,0,0,1,1,6.8H2.39a.48.48,0,0,1,.49.49A.48.48,0,0,1,2.39,7.78Z"/>
        <path class="cls-2" d="M12.76,7.78H11.38a.48.48,0,0,1-.49-.49.49.49,0,0,1,.49-.49h1.38a.49.49,0,0,1,.49.49A.48.48,0,0,1,12.76,7.78Z"/>
      </g>
      <g>
        <path class="cls-2" d="M3.71,4.61a.5.5,0,0,1-.35-.15l-1-1a.5.5,0,0,1,0-.7.49.49,0,0,1,.69,0l1,1a.5.5,0,0,1-.35.84Z"/>
        <path class="cls-2" d="M11,11.94a.49.49,0,0,1-.34-.14l-1-1a.5.5,0,0,1,0-.7.49.49,0,0,1,.69,0l1,1a.5.5,0,0,1,0,.7A.52.52,0,0,1,11,11.94Z"/>
      </g>
      <g>
        <path class="cls-2" d="M2.73,11.94a.49.49,0,0,1-.34-.14.5.5,0,0,1,0-.7l1-1a.49.49,0,1,1,.7.7l-1,1A.52.52,0,0,1,2.73,11.94Z"/>
        <path class="cls-2" d="M10.07,4.61a.47.47,0,0,1-.35-.15.49.49,0,0,1,0-.69l1-1a.49.49,0,0,1,.69,0,.5.5,0,0,1,0,.7l-1,1A.46.46,0,0,1,10.07,4.61Z"/>
      </g>
    </g>
    <path class="cls-3" d="M2,21.07a.51.51,0,0,1-.36-.87L19.81,2a.51.51,0,1,1,.72.72L2.33,20.92A.51.51,0,0,1,2,21.07Z"/>
  </g>
</svg>
